<svg width="50" height="50" viewBox="0 0 50 50" fill="none" xmlns="http://www.w3.org/2000/svg">
<rect width="50" height="50" rx="9" fill="#18993E"/>
<path d="M5.5625 21V12.2727H7.93182V15.6818H11.0682V12.2727H13.4375V21H11.0682V17.5909H7.93182V21H5.5625ZM16.8295 21H14.2727L17.1534 12.2727H20.392L23.2727 21H20.7159L18.8068 14.6761H18.7386L16.8295 21ZM16.3523 17.5568H21.1591V19.3295H16.3523V17.5568ZM24.1133 21V12.2727H26.4826V19.0909H30.011V21H24.1133ZM33.2358 21H30.679L33.5597 12.2727H36.7983L39.679 21H37.1222L35.2131 14.6761H35.1449L33.2358 21ZM32.7585 17.5568H37.5653V19.3295H32.7585V17.5568ZM40.5195 21V12.2727H42.8888V19.0909H46.4173V21H40.5195Z" fill="white"/>
<path d="M4.6321 36V28.7273H9.53267V29.995H6.16974V31.728H9.28054V32.9957H6.16974V34.7322H9.54688V36H4.6321ZM19.4865 31.2734H17.9311C17.9027 31.0722 17.8447 30.8935 17.7571 30.7372C17.6695 30.5786 17.5571 30.4437 17.4197 30.3324C17.2824 30.2211 17.1238 30.1359 16.9439 30.0767C16.7663 30.0175 16.5734 29.9879 16.3651 29.9879C15.9886 29.9879 15.6607 30.0814 15.3814 30.2685C15.102 30.4531 14.8854 30.723 14.7315 31.0781C14.5777 31.4309 14.5007 31.8594 14.5007 32.3636C14.5007 32.8821 14.5777 33.3177 14.7315 33.6705C14.8878 34.0232 15.1056 34.2895 15.3849 34.4695C15.6643 34.6494 15.9875 34.7393 16.3544 34.7393C16.5604 34.7393 16.7509 34.7121 16.9261 34.6577C17.1037 34.6032 17.2611 34.5239 17.3984 34.4197C17.5357 34.3132 17.6494 34.1842 17.7393 34.0327C17.8317 33.8812 17.8956 33.7083 17.9311 33.5142L19.4865 33.5213C19.4463 33.8551 19.3456 34.1771 19.1847 34.4872C19.026 34.795 18.8118 35.0708 18.5419 35.3146C18.2744 35.5561 17.9548 35.7479 17.5831 35.8899C17.2138 36.0296 16.7959 36.0994 16.3295 36.0994C15.6809 36.0994 15.1009 35.9527 14.5895 35.6591C14.0805 35.3655 13.678 34.9406 13.3821 34.3842C13.0885 33.8279 12.9418 33.1544 12.9418 32.3636C12.9418 31.5705 13.0909 30.8958 13.3892 30.3395C13.6875 29.7831 14.0923 29.3594 14.6037 29.0682C15.1151 28.7746 15.6903 28.6278 16.3295 28.6278C16.7509 28.6278 17.1416 28.687 17.5014 28.8054C17.8636 28.9238 18.1844 29.0966 18.4638 29.3239C18.7431 29.5488 18.9704 29.8246 19.1456 30.1513C19.3232 30.478 19.4368 30.852 19.4865 31.2734ZM27.2724 32.3636C27.2724 33.1567 27.122 33.8314 26.8214 34.3878C26.5231 34.9441 26.1159 35.3691 25.5998 35.6626C25.0861 35.9538 24.5084 36.0994 23.8668 36.0994C23.2205 36.0994 22.6405 35.9527 22.1268 35.6591C21.613 35.3655 21.207 34.9406 20.9087 34.3842C20.6104 33.8279 20.4613 33.1544 20.4613 32.3636C20.4613 31.5705 20.6104 30.8958 20.9087 30.3395C21.207 29.7831 21.613 29.3594 22.1268 29.0682C22.6405 28.7746 23.2205 28.6278 23.8668 28.6278C24.5084 28.6278 25.0861 28.7746 25.5998 29.0682C26.1159 29.3594 26.5231 29.7831 26.8214 30.3395C27.122 30.8958 27.2724 31.5705 27.2724 32.3636ZM25.7134 32.3636C25.7134 31.8499 25.6365 31.4167 25.4826 31.0639C25.3311 30.7112 25.1168 30.4437 24.8398 30.2614C24.5629 30.0791 24.2385 29.9879 23.8668 29.9879C23.4951 29.9879 23.1708 30.0791 22.8938 30.2614C22.6168 30.4437 22.4014 30.7112 22.2475 31.0639C22.096 31.4167 22.0202 31.8499 22.0202 32.3636C22.0202 32.8774 22.096 33.3106 22.2475 33.6634C22.4014 34.0161 22.6168 34.2836 22.8938 34.4659C23.1708 34.6482 23.4951 34.7393 23.8668 34.7393C24.2385 34.7393 24.5629 34.6482 24.8398 34.4659C25.1168 34.2836 25.3311 34.0161 25.4826 33.6634C25.6365 33.3106 25.7134 32.8774 25.7134 32.3636ZM30.9895 36H28.4114V28.7273H31.0108C31.7424 28.7273 32.3721 28.8729 32.9 29.1641C33.428 29.4529 33.834 29.8684 34.1181 30.4105C34.4045 30.9527 34.5478 31.6013 34.5478 32.3565C34.5478 33.1141 34.4045 33.7652 34.1181 34.3097C33.834 34.8542 33.4256 35.272 32.8929 35.5632C32.3626 35.8544 31.7282 36 30.9895 36ZM29.949 34.6825H30.9256C31.3801 34.6825 31.7625 34.602 32.0726 34.4411C32.3851 34.2777 32.6195 34.0256 32.7757 33.6847C32.9344 33.3414 33.0137 32.8987 33.0137 32.3565C33.0137 31.8191 32.9344 31.38 32.7757 31.0391C32.6195 30.6982 32.3863 30.4472 32.0762 30.2862C31.766 30.1252 31.3837 30.0447 30.9292 30.0447H29.949V34.6825ZM35.6868 36V28.7273H40.5874V29.995H37.2244V31.728H40.3352V32.9957H37.2244V34.7322H40.6016V36H35.6868ZM45.7551 30.8189C45.7267 30.5324 45.6048 30.3099 45.3894 30.1513C45.1739 29.9927 44.8816 29.9134 44.5123 29.9134C44.2613 29.9134 44.0494 29.9489 43.8766 30.0199C43.7038 30.0885 43.5712 30.1844 43.4789 30.3075C43.3889 30.4306 43.3439 30.5703 43.3439 30.7266C43.3392 30.8568 43.3664 30.9704 43.4256 31.0675C43.4872 31.1645 43.5712 31.2486 43.6777 31.3196C43.7843 31.3883 43.9074 31.4486 44.0471 31.5007C44.1867 31.5504 44.3359 31.593 44.4945 31.6286L45.1479 31.7848C45.4651 31.8558 45.7563 31.9505 46.0215 32.0689C46.2866 32.1873 46.5163 32.3329 46.7104 32.5057C46.9045 32.6785 47.0549 32.8821 47.1614 33.1165C47.2703 33.3509 47.3259 33.6196 47.3283 33.9226C47.3259 34.3677 47.2123 34.7536 46.9874 35.0803C46.7649 35.4046 46.4429 35.6567 46.0215 35.8366C45.6025 36.0142 45.097 36.103 44.5051 36.103C43.918 36.103 43.4067 36.013 42.9711 35.8331C42.5378 35.6532 42.1993 35.3868 41.9554 35.0341C41.714 34.679 41.5873 34.2398 41.5755 33.7166H43.0634C43.08 33.9605 43.1498 34.1641 43.2729 34.3274C43.3984 34.4884 43.5653 34.6103 43.7736 34.6932C43.9843 34.7737 44.2222 34.8139 44.4874 34.8139C44.7478 34.8139 44.9739 34.776 45.1657 34.7003C45.3598 34.6245 45.5101 34.5192 45.6167 34.3842C45.7232 34.2493 45.7765 34.0942 45.7765 33.919C45.7765 33.7557 45.7279 33.6184 45.6309 33.5071C45.5362 33.3958 45.3965 33.3011 45.2118 33.223C45.0295 33.1449 44.8058 33.0739 44.5407 33.0099L43.7488 32.8111C43.1356 32.6619 42.6515 32.4287 42.2963 32.1115C41.9412 31.7943 41.7649 31.367 41.7672 30.8295C41.7649 30.3892 41.882 30.0045 42.1188 29.6754C42.3579 29.3464 42.6858 29.0895 43.1025 28.9048C43.5191 28.7202 43.9926 28.6278 44.5229 28.6278C45.0627 28.6278 45.5338 28.7202 45.9363 28.9048C46.3411 29.0895 46.656 29.3464 46.8809 29.6754C47.1058 30.0045 47.2218 30.3857 47.2289 30.8189H45.7551Z" fill="#FFF587"/>
</svg>
